Coordinates
version=1
nRows=9
nColumns=24
inDegrees=yes

Units are S.I. units (second, meters, Newtons, ...)
Angles are in degrees.

endheader
time	pelvis_tilt	pelvis_list	pelvis_rotation	pelvis_tx	pelvis_ty	pelvis_tz	hip_flexion_r	hip_adduction_r	hip_rotation_r	knee_angle_r	ankle_angle_r	subtalar_angle_r	mtp_angle_r	hip_flexion_l	hip_adduction_l	hip_rotation_l	knee_angle_l	ankle_angle_l	subtalar_angle_l	mtp_angle_l	lumbar_extension	lumbar_bending	lumbar_rotation
      1.10466667	      0.89088182	     -3.15852536	     -3.24506563	     -0.17361734	      1.05479028	      0.35562298	    -15.06356431	      8.49322244	     -0.66674230	     -3.43745374	      8.58464165	     -8.18151808	      4.63014546	     18.38290132	     -1.17962205	     -6.19410913	      5.79327406	      0.22136598	     -4.05107199	      8.73782667	      1.63460336	      7.35433445	      2.13987719
      1.10883333	      0.89012568	     -3.17559788	     -3.28774386	     -0.16799557	      1.05407077	      0.35554937	    -15.17814029	      8.47700903	     -0.60226449	     -3.87914464	      8.59592350	     -8.24277533	      4.62594909	     18.36701733	     -1.12791513	     -6.07551431	      5.72482216	      0.21803315	     -3.97985265	      8.71535727	      1.66370030	      7.33913225	      2.14150339
      1.11300000	      0.88470517	     -3.18163290	     -3.25667402	     -0.16230113	      1.05332940	      0.35547355	    -15.31062747	      8.46953682	     -0.42134424	     -4.28444854	      8.78037299	     -8.42943899	      4.61187852	     18.36231546	     -1.06091962	     -5.76065152	      5.58113219	      0.20977010	     -3.79696400	      8.63280904	      1.64661821	      7.33332245	      2.15200382
      1.11716667	      0.90530675	     -3.18791674	     -3.29674639	     -0.15660060	      1.05268598	      0.35543465	    -15.42830194	      8.43716278	     -0.35169435	     -4.77000815	      8.78520409	     -8.48049126	      4.60828324	     18.33040548	     -1.00943106	     -5.61130296	      5.36269299	      0.18368700	     -3.74788770	      8.61114180	      1.68970627	      7.30789651	      2.16052706
      1.12133333	      0.91878044	     -3.19697782	     -3.26687312	     -0.15088014	      1.05202675	      0.35536155	    -15.54480130	      8.42718855	     -0.21791450	     -5.24825588	      8.93611414	     -8.62283384	      4.59615176	     18.30847926	     -0.95521827	     -5.22591766	      5.09316086	      0.09504544	     -3.66502054	      8.52718264	      1.64093392	      7.29997489	      2.18396419
      1.12550000	      0.94759171	     -3.18792554	     -3.31546729	     -0.14508334	      1.05146017	      0.35535670	    -15.64791257	      8.37010141	     -0.15582198	     -5.78649476	      8.92206879	     -8.65093981	      4.59399770	     18.26246869	     -0.90012280	     -5.05630144	      4.76534744	      0.04106865	     -3.64401843	      8.50945364	      1.69270039	      7.26205251	      2.19715119
      1.12966667	      0.97848953	     -3.17965684	     -3.36401021	     -0.13927558	      1.05092506	      0.35536549	    -15.73686675	      8.31068007	     -0.08977714	     -6.36076123	      8.92264935	     -8.67172073	      4.59264561	     18.20807769	     -0.85307484	     -4.82233872	      4.40512084	     -0.05080717	     -3.61814499	      8.49092474	      1.71956737	      7.21486110	      2.21462010
      1.13383333	      0.97246033	     -3.18525852	     -3.31037708	     -0.13348862	      1.05031599	      0.35522306	    -15.77423903	      8.29166614	     -0.08207521	     -6.94927677	      9.03636908	     -8.66557758	      4.59005840	     18.20015059	     -0.79862287	     -4.27965982	      4.01756701	     -0.37335742	     -3.70745501	      8.41599304	      1.60451394	      7.19916116	      2.26003145
      1.13800000	      1.10445212	     -3.14804403	     -3.25693555	     -0.12758529	      1.04995438	      0.35484593	    -15.92585931	      8.18820204	     -0.34224404	     -7.60003261	      9.10940558	     -8.27201622	      4.59215087	     17.99151142	     -0.67018706	     -3.56830855	      3.69619329	     -0.88552680	     -4.77921528	      8.11152411	      1.60068345	      7.22339583	      2.35633567
